<svg width="212" height="212" viewBox="0 0 212 212" fill="none" xmlns="http://www.w3.org/2000/svg">
<circle cx="106" cy="106" r="90" fill="#D3FFFE" fill-opacity="0.3"/>
<mask id="path-2-inside-1_2_335" fill="white">
<path d="M123.84 15.7477C124.269 13.5798 122.859 11.466 120.675 11.1282C98.246 7.65804 75.3054 12.2498 55.9402 24.0852C54.0545 25.2377 53.5669 27.7312 54.7968 29.5672C56.0268 31.4032 58.5081 31.8859 60.3981 30.7406C77.9939 20.0779 98.7777 15.9179 119.122 18.9866C121.307 19.3162 123.411 17.9157 123.84 15.7477Z"/>
</mask>
<path d="M123.84 15.7477C124.269 13.5798 122.859 11.466 120.675 11.1282C98.246 7.65804 75.3054 12.2498 55.9402 24.0852C54.0545 25.2377 53.5669 27.7312 54.7968 29.5672C56.0268 31.4032 58.5081 31.8859 60.3981 30.7406C77.9939 20.0779 98.7777 15.9179 119.122 18.9866C121.307 19.3162 123.411 17.9157 123.84 15.7477Z" stroke="#332D57" stroke-width="16" mask="url(#path-2-inside-1_2_335)"/>
<mask id="path-3-inside-2_2_335" fill="white">
<path d="M15.4823 77.583C13.3079 76.9004 10.983 78.1079 10.3916 80.3088C6.63976 94.2709 5.98722 108.903 8.501 123.174C11.0148 137.445 16.6276 150.973 24.9244 162.813C26.2322 164.68 28.8297 165.02 30.64 163.636C32.4502 162.251 32.787 159.666 31.4862 157.795C23.9892 147.01 18.9131 134.711 16.6288 121.742C14.3445 108.774 14.9126 95.4807 18.2732 82.7828C18.8563 80.5797 17.6566 78.2656 15.4823 77.583Z"/>
</mask>
<path d="M15.4823 77.583C13.3079 76.9004 10.983 78.1079 10.3916 80.3088C6.63976 94.2709 5.98722 108.903 8.501 123.174C11.0148 137.445 16.6276 150.973 24.9244 162.813C26.2322 164.68 28.8297 165.02 30.64 163.636C32.4502 162.251 32.787 159.666 31.4862 157.795C23.9892 147.01 18.9131 134.711 16.6288 121.742C14.3445 108.774 14.9126 95.4807 18.2732 82.7828C18.8563 80.5797 17.6566 78.2656 15.4823 77.583Z" stroke="#332D57" stroke-width="16" mask="url(#path-3-inside-2_2_335)"/>
<mask id="path-4-inside-3_2_335" fill="white">
<path d="M147.697 23.9933C148.699 22.0233 147.917 19.6063 145.907 18.6877C143.073 17.3925 140.178 16.2359 137.232 15.2223C135.142 14.5033 132.91 15.7166 132.279 17.8344C131.647 19.9523 132.856 22.172 134.943 22.8989C137.43 23.7651 139.877 24.7425 142.276 25.8282C144.29 26.7393 146.695 25.9632 147.697 23.9933Z"/>
</mask>
<path d="M147.697 23.9933C148.699 22.0233 147.917 19.6063 145.907 18.6877C143.073 17.3925 140.178 16.2359 137.232 15.2223C135.142 14.5033 132.91 15.7166 132.279 17.8344C131.647 19.9523 132.856 22.172 134.943 22.8989C137.43 23.7651 139.877 24.7425 142.276 25.8282C144.29 26.7393 146.695 25.9632 147.697 23.9933Z" stroke="#332D57" stroke-width="16" mask="url(#path-4-inside-3_2_335)"/>
<circle cx="106" cy="106" r="74" fill="#109B95"/>
<circle cx="106" cy="106" r="74" stroke="#332D57" stroke-width="8"/>
<mask id="mask0_2_335" style="mask-type:alpha" maskUnits="userSpaceOnUse" x="36" y="36" width="140" height="140">
<circle cx="106" cy="106" r="70" fill="#0FCDC8"/>
</mask>
<g mask="url(#mask0_2_335)">
<circle cx="90" cy="106" r="70" fill="#0FCDC8"/>
</g>
<mask id="mask1_2_335" style="mask-type:alpha" maskUnits="userSpaceOnUse" x="36" y="36" width="140" height="140">
<circle cx="106" cy="106" r="70" fill="#109B95"/>
</mask>
<g mask="url(#mask1_2_335)">
<path d="M76.5 81.5C69 79 51 78.5 44 61.5C37.0001 44.5 25 81.797 25 117C25 134 75 187 83.5 175C103.5 139.5 28.488 127 52 113.5C63.0709 111.575 63.1751 98.837 60.3422 94.023C60.1476 93.6922 60.1093 93.2827 60.32 92.9619C64.9576 85.9023 83.8175 83.9391 76.5 81.5Z" fill="#EFC928" stroke="#332D57" stroke-width="8"/>
<path d="M118 67.5C107.2 55.5 138.167 47.1667 155 44.5L185 80C184.333 100.5 180.8 141.9 172 143.5C161 145.5 158.5 101 150.5 122.5C146.756 138.495 137.917 148.236 132.022 151.092C128.342 152.875 127.321 148.394 127.675 144.32C129.142 127.468 117.12 111.729 114 109.5C110.5 107 115.5 100 118 96C120.5 92 129 99.5 143.5 101C158 102.5 164 95.5 158.5 92C153.457 88.7911 151.777 84.7415 152.689 77.5393C152.856 76.2145 152.755 74.7373 151.708 73.9082C145.836 69.2582 130.434 81.3153 118 67.5Z" fill="#EFC928" stroke="#332D57" stroke-width="8"/>
</g>
<path fill-rule="evenodd" clip-rule="evenodd" d="M82.3677 55.0474C82.3677 52.0875 79.3536 50.1004 76.7542 51.5162C63.5298 58.7193 53.2187 70.5968 48.0402 84.9295C47.1284 87.453 49.0838 90.0001 51.7669 90.0001C53.5572 90.0001 55.124 88.8281 55.749 87.1505C60.2522 75.0624 68.9617 65.0222 80.0978 58.8097C81.4706 58.0439 82.3677 56.6193 82.3677 55.0474Z" fill="white"/>
<circle cx="47.3677" cy="99" r="4" fill="white"/>
<circle cx="170.368" cy="184" r="5" fill="#332D57"/>
<circle cx="188" cy="168" r="8" fill="#EFC928"/>
<circle cx="64" cy="167" r="11" fill="#43C58C" stroke="#332D57" stroke-width="8"/>
<circle cx="20" cy="38" r="10" fill="#FBCE36"/>
<path fill-rule="evenodd" clip-rule="evenodd" d="M28 38C28 42.4183 24.4183 46 20 46C18.7442 46 17.556 45.7107 16.4984 45.195C14.6514 44.2944 12.4165 43.7343 10.6369 44.7617C8.54764 45.968 7.90751 48.75 9.76047 50.2949C12.5351 52.6082 16.105 54 20 54C28.8366 54 36 46.8366 36 38C36 29.1634 28.8366 22 20 22C11.1634 22 4 29.1634 4 38C4 39.7213 5.89334 40.5722 7.38401 39.7116L10.0061 38.1977C11.2998 37.4508 12.0842 36.098 12.6946 34.7346C13.9438 31.9441 16.7449 30 20 30C24.4183 30 28 33.5817 28 38Z" fill="#332D57"/>
</svg>
